<svg version="1.0" xmlns="http://www.w3.org/2000/svg"
width="697.000000pt" height="697.000000pt" viewBox="0 0 697.000000 697.000000"
preserveAspectRatio="xMidYMid meet">
<rect width="100%" height="100%" fill="white"/>
<g transform="translate(0.000000,697.000000) scale(0.100000,-0.100000)"
fill="#0094FE" stroke="none">
<path d="M0 3485 l0 -3485 3485 0 3485 0 0 3485 0 3485 -3485 0 -3485 0 0
-3485z m3750 1460 c144 -286 342 -677 440 -870 383 -753 470 -928 470 -942 0
-8 -31 -85 -68 -171 -38 -86 -98 -226 -133 -309 -35 -84 -67 -153 -70 -153 -3
0 -71 78 -151 173 -80 94 -228 269 -328 387 -100 118 -237 279 -303 358 -66
78 -124 142 -128 142 -7 0 -174 -194 -504 -584 -55 -65 -144 -171 -199 -234
-54 -64 -123 -147 -154 -185 l-56 -69 -13 28 c-7 16 -69 162 -138 324 l-126
295 33 65 c18 36 177 349 352 695 175 347 404 798 508 1003 105 205 213 420
241 478 28 57 54 101 58 97 3 -5 125 -242 269 -528z m-3241 278 c159 -120 486
-369 727 -553 241 -184 445 -340 453 -346 13 -10 12 -28 -7 -145 -12 -74 -35
-234 -51 -356 l-31 -222 34 -83 c19 -46 53 -126 76 -178 41 -94 135 -316 255
-605 205 -492 447 -1070 453 -1081 5 -9 24 8 60 52 30 35 167 194 305 352 321
367 534 612 620 715 37 45 71 82 75 82 5 0 80 -83 167 -185 88 -102 249 -288
360 -415 278 -318 444 -510 485 -561 19 -24 39 -42 43 -41 4 1 37 72 73 157
192 454 230 545 322 765 55 132 125 299 155 370 255 604 261 618 261 680 1 33
-19 203 -43 378 -24 175 -42 319 -40 321 2 1 128 95 279 208 151 112 394 296
540 408 437 335 472 362 555 425 44 34 86 64 92 68 7 5 -8 -41 -33 -100 -25
-59 -83 -200 -129 -313 -136 -336 -189 -466 -265 -650 -40 -96 -112 -272 -160
-390 -48 -118 -121 -296 -163 -395 -41 -99 -111 -268 -155 -375 -44 -107 -121
-294 -172 -415 -90 -215 -127 -303 -382 -925 -69 -168 -208 -501 -308 -740
-100 -239 -194 -463 -207 -498 -14 -34 -28 -62 -32 -62 -4 0 -61 59 -127 132
-65 73 -140 155 -165 183 -25 27 -88 97 -139 155 -95 108 -182 203 -351 389
-53 58 -176 194 -273 301 -98 107 -180 195 -184 195 -10 0 -169 -174 -1011
-1106 -156 -172 -234 -250 -241 -242 -7 8 -88 203 -275 658 -57 138 -132 320
-168 405 -35 85 -134 324 -219 530 -150 361 -211 507 -351 840 -35 85 -102
245 -147 355 -45 110 -107 259 -137 330 -31 72 -80 189 -109 260 -29 72 -92
225 -140 340 -47 116 -117 284 -154 375 -184 449 -251 612 -283 688 -19 45
-33 82 -30 82 2 0 134 -98 292 -217z"/>
</g>
</svg>

