<?xml version="1.0" standalone="no"?>  <!DOCTYPE svg PUBLIC "-//W3C//DTD SVG 20010904//EN"  
 "http://www.w3.org/TR/2001/REC-SVG-20010904/DTD/svg10.dtd">  <svg version="1.0" xmlns="http://www.w3.org/2000/svg"  
width="500.000000pt" height="500.000000pt" viewBox="0 0 500.000000 500.000000"  
preserveAspectRatio="xMidYMid meet">

<!-- Додаємо фон -->  <rect width="100%" height="100%" fill="#0094FE"/>  <g transform="translate(0.000000,500.000000) scale(0.100000,-0.100000)"  
fill="#ffffff" stroke="none">
<path d="M2285 3658 c-115 -227 -217 -428 -227 -447 l-19 -34 52 -121 c28 -66  
52 -122 54 -124 1 -2 240 276 330 386 l21 24 174 -206 c95 -113 174 -205 176  
-203 1 1 25 56 53 123 l52 120 -222 440 c-122 241 -225 443 -229 447 -4 5  
-101 -178 -215 -405z"/>
<path d="M1253 4038 c7 -19 399 -965 593 -1430 93 -225 172 -408 176 -408 4 0  
111 115 239 255 127 141 235 255 239 253 4 -2 109 -117 235 -255 125 -139 231  
-253 235 -253 3 0 58 123 120 273 189 453 375 905 506 1226 69 167 129 312  
135 323 6 11 8 22 6 25 -3 3 -72 -47 -154 -109 -81 -63 -204 -156 -273 -208  
-69 -51 -127 -95 -129 -96 -2 -2 4 -67 14 -146 l17 -143 -137 -325 c-75 -179  
-144 -344 -153 -368 -9 -23 -19 -41 -23 -40 -4 2 -89 98 -189 213 -100 116  
-190 218 -199 227 -15 16 -29 3 -215 -212 -110 -127 -203 -227 -207 -223 -4 5  
-52 116 -107 248 -55 132 -124 296 -153 364 l-52 125 19 137 19 137 -277 211  
c-152 116 -280 211 -283 211 -4 0 -5 -6 -2 -12z"/>
<path d="M504 1788 c7 -24 37 -121 67 -215 l54 -173 41 0 41 0 54 155 c30 86  
55 152 57 148 1 -4 26 -75 55 -158 l52 -150 39 0 39 0 73 218 72 217 -42 0  
-43 0 -48 -155 c-27 -85 -52 -152 -56 -147 -4 4 -28 73 -55 155 l-48 147 -37  
0 -37 0 -30 -82 c-16 -46 -40 -113 -53 -150 -13 -38 -27 -68 -30 -68 -4 0 -10  
12 -14 28 -3 15 -22 82 -42 150 l-36 122 -43 0 -43 0 13 -42z"/>
<path d="M1390 1615 l0 -215 174 0 c112 0 177 4 181 11 4 5 4 21 1 35 -6 24  
-7 24 -141 24 l-135 0 0 55 0 55 120 0 120 0 0 35 0 35 -120 0 -120 0 0 55 0  
55 135 0 135 0 0 35 0 35 -175 0 -175 0 0 -215z"/>
<path d="M2000 1615 l0 -215 180 0 180 0 0 35 0 35 -140 0 -140 0 0 55 0 55  
125 0 125 0 0 35 0 35 -125 0 -125 0 0 55 0 55 140 0 140 0 0 35 0 35 -180 0  
-180 0 0 -215z"/>
<path d="M2620 1614 l0 -215 159 3 160 3 30 29 c54 52 48 131 -13 171 l-24 16  
24 24 c30 30 35 86 12 132 -21 42 -65 53 -212 53 l-136 0 0 -216z m270 126  
c26 -26 25 -36 -5 -65 -22 -22 -32 -25 -105 -25 l-80 0 0 55 0 55 85 0 c72 0  
88 -3 105 -20z m0 -173 c32 -16 40 -65 14 -84 -12 -9 -51 -13 -113 -13 l-96 0  
-1 55 -1 55 86 0 c49 0 97 -6 111 -13z"/>
<path d="M3224 1815 c3 -8 35 -107 72 -220 l66 -205 38 0 c21 0 40 6 43 13 2  
6 26 73 52 147 27 74 51 138 54 142 4 4 30 -62 60 -147 l53 -155 39 0 c22 0  
39 1 39 3 0 1 32 96 70 211 39 116 70 214 70 218 0 4 -18 8 -40 8 l-39 0 -47  
-147 c-25 -82 -49 -151 -53 -156 -4 -4 -17 26 -30 65 -13 40 -37 110 -53 156  
l-30 83 -36 -3 -35 -3 -57 -158 -56 -159 -43 144 c-23 79 -45 151 -47 161 -4  
13 -16 17 -51 17 -36 0 -44 -3 -39 -15z"/>
<path d="M4120 1615 l0 -215 180 0 180 0 0 35 0 35 -140 0 -140 0 0 55 0 55  
125 0 125 0 0 35 0 35 -125 0 -125 0 0 55 0 55 140 0 140 0 0 35 0 35 -180 0  
-180 0 0 -215z"/>
</g>
</svg>


